# xmcd CD database file
#
# Track frame offsets:
#	150
#	18175
#	42302
#	61697
#	83250
#	100062
#	117497
#	136815
#	153817
#	174222
#	199570
#
# Disc length: 2823 seconds
#
# Revision: 0
# Processed by: cddbd v1.4PL0 Copyright (c) Steve Scherf et al.
# Submitted via: CDex 1.50beta10
#
DISCID=720b050b
DTITLE=Preston Shannon - All In Time
DYEAR=1999
DGENRE=Blues
TTITLE0=Just Between Me And My Woman
TTITLE1=Tired Of The Ghetto Bringing Me Down
TTITLE2=Are You In The Mood?
TTITLE3=Jail Of Love
TTITLE4=That's The Way I Feel About Cha
TTITLE5=Wrapped Up Tied Up
TTITLE6=Welfare Woman
TTITLE7=Your Good Think Just Broke Bad
TTITLE8=Be With Me Tonight
TTITLE9=Purple Rain
TTITLE10=Cold Beer Good Time
EXTD=YEAR: 1999
EXTT0=
EXTT1=
EXTT2=
EXTT3=
EXTT4=
EXTT5=
EXTT6=
EXTT7=
EXTT8=
EXTT9=
EXTT10=
PLAYORDER=
